HIERARCHY
ROOT hip
{
	OFFSET 0.000000 0.000000 0.000000 
	CHANNELS 6 Xposition Yposition Zposition Xrotation Zrotation Yrotation
	JOINT abdomen
	{
		OFFSET 0.000000 3.402643 0.000000 
		CHANNELS 3 Xrotation Zrotation Yrotation
		JOINT chest
		{
			OFFSET 0.000000 8.438565 -0.680529 
			CHANNELS 3 Xrotation Zrotation Yrotation
			JOINT neck
			{
				OFFSET 0.000000 10.207942 -0.272212 
				CHANNELS 3 Xrotation Zrotation Yrotation
				JOINT head
				{
					OFFSET 0.000000 3.130431 0.000000 
					CHANNELS 3 Xrotation Zrotation Yrotation
					End Site
					{
						OFFSET 0.000000 3.130435 0.000000 
					}
				}
			}
			JOINT lCollar
			{
				OFFSET 3.470700 6.669187 -0.816635 
				CHANNELS 3 Yrotation Zrotation Xrotation
				JOINT lShldr
				{
					OFFSET 3.198488 0.000000 0.000000 
					CHANNELS 3 Zrotation Yrotation Xrotation
					JOINT lForeArm
					{
						OFFSET 10.139888 0.000000 0.000000 
						CHANNELS 3 Yrotation Zrotation Xrotation
						JOINT lHand
						{
							OFFSET 8.370511 0.000000 0.000000 
							CHANNELS 3 Zrotation Yrotation Xrotation
							End Site
							{
								OFFSET 4.083176 0.000000 0.000000 
							}
						}
					}
				}
			}
			JOINT rCollar
			{
				OFFSET -3.470700 6.669187 -0.816635 
				CHANNELS 3 Yrotation Zrotation Xrotation
				JOINT rShldr
				{
					OFFSET -3.198488 0.000000 0.000000 
					CHANNELS 3 Zrotation Yrotation Xrotation
					JOINT rForeArm
					{
						OFFSET -10.139888 0.000000 0.000000 
						CHANNELS 3 Yrotation Zrotation Xrotation
						JOINT rHand
						{
							OFFSET -8.370511 0.000000 0.000000 
							CHANNELS 3 Zrotation Yrotation Xrotation
							End Site
							{
								OFFSET -4.083176 0.000000 0.000000 
							}
						}
					}
				}
			}
		}
	}
	JOINT lThigh
	{
		OFFSET 5.308129 -1.633274 1.361059 
		CHANNELS 3 Xrotation Zrotation Yrotation
		JOINT lShin
		{
			OFFSET -2.041588 -20.007561 0.000000 
			CHANNELS 3 Xrotation Zrotation Yrotation
			JOINT lFoot
			{
				OFFSET 0.000000 -19.190928 -1.224953 
				CHANNELS 3 Xrotation Yrotation Zrotation
				End Site
				{
					OFFSET 0.000000 -2.449906 4.627600 
				}
			}
		}
	}
	JOINT rThigh
	{
		OFFSET -5.308129 -1.633274 1.361059 
		CHANNELS 3 Xrotation Zrotation Yrotation
		JOINT rShin
		{
			OFFSET 2.041588 -20.007561 0.000000 
			CHANNELS 3 Xrotation Zrotation Yrotation
			JOINT rFoot
			{
				OFFSET 0.000000 -19.190928 -1.224953 
				CHANNELS 3 Xrotation Yrotation Zrotation
				End Site
				{
					OFFSET 0.000000 -2.449906 4.627600 
				}
			}
		}
	}
}
MOTION
Frames: 8
Frame Time: 0.016667
13.038944 49.119179 145.896149 8.770809 -2.020024 2.178790 29.791868 -2.851469 4.761617 -26.922663 0.602513 5.664467 -15.874176 5.353081 3.188215 6.799827 -10.043139 5.453741 -3.573134 6.348265 -0.010767 -50.135975 48.250656 27.156143 -9.660288 -3.556870 -47.493797 -6.562587 12.419581 -1.426901 11.044727 -1.163980 -0.009583 53.778797 38.644974 13.678533 68.279625 -0.099812 0.571165 15.794181 -1.096795 -0.320492 -23.384420 5.750084 9.230092 4.003767 -1.861649 -0.827982 12.830443 -14.498994 -9.098429 -0.966287 -7.884162 -1.267291 20.461226 1.464377 1.888304 -10.087022 6.352825 13.406082 
13.575067 48.626976 147.311249 7.365736 -2.097451 2.599132 30.025354 -2.618630 4.565144 -27.532459 0.797265 5.371660 -12.705956 5.299857 1.892942 7.486827 -8.887524 3.745688 -3.524192 7.012319 -0.010866 -48.447842 50.490486 26.012747 -8.847693 -3.670660 -49.806976 -3.926543 10.939098 -0.784540 11.132549 -1.574151 -0.009578 53.563492 38.581848 12.978264 70.756073 -0.308269 2.509226 14.875223 -0.931896 -0.257740 -22.181009 5.524477 8.976542 5.300049 -1.845495 -0.956448 10.204739 -14.215117 -9.701804 0.253415 -8.629045 -1.401344 24.632158 1.317293 2.155164 -10.350902 7.583192 13.694061 
14.111158 48.134674 148.726196 5.969950 -2.155190 3.029240 30.267004 -2.385633 4.368761 -28.144415 0.992199 5.069288 -9.545125 5.312222 0.588846 8.122357 -7.700161 2.059241 -3.475249 7.676373 -0.010965 -46.769848 52.740353 24.920967 -8.027540 -3.816501 -52.113449 -1.318211 9.421160 -0.223877 11.220372 -1.984322 -0.009573 53.355507 38.504223 12.279930 73.244881 -0.431918 4.455864 13.946589 -0.767700 -0.190756 -20.988317 5.309340 8.678144 6.592494 -1.825641 -1.025781 7.579774 -13.908893 -10.281541 1.493478 -9.361489 -1.572051 28.797617 1.151249 2.418800 -10.638505 8.793008 13.972379 
14.622756 47.575336 150.036255 4.747187 -1.772163 4.376830 30.651974 -2.348809 3.626002 -28.394836 1.460631 4.347275 -7.057675 3.992217 -1.781188 7.719663 -5.575557 -0.854129 -3.777921 8.037754 -0.011014 -48.150135 52.906761 21.089579 -7.068557 -3.718196 -50.133518 1.612648 8.249809 0.193997 11.581588 -2.658211 -0.009557 54.483620 36.372349 10.923973 77.495560 -0.604281 5.956076 12.522068 -1.144007 -0.254208 -22.323635 4.423610 7.667003 14.988111 -1.660504 -1.598370 1.446427 -12.392299 -11.811409 1.765798 -10.518719 -2.507827 34.707855 0.896968 2.754686 -10.550186 10.285306 14.246187 
15.134287 47.016308 151.346100 3.546723 -1.350701 5.704527 31.045826 -2.301754 2.892605 -28.648241 1.920002 3.615504 -4.521081 2.785465 -4.203739 7.211854 -3.468993 -3.786543 -4.070828 8.399133 -0.011063 -49.566349 53.005722 17.232037 -6.128017 -3.586826 -48.151997 4.515517 7.059082 0.547071 11.952570 -3.322335 -0.009538 55.641144 34.256458 9.550197 81.750580 -0.675639 7.462777 11.087955 -1.523763 -0.298734 -23.637865 3.533975 6.668413 23.374886 -1.420537 -2.129508 -4.626610 -10.732613 -13.201079 2.058574 -11.682194 -3.442099 40.642509 0.593966 3.064506 -10.485659 11.771226 14.518789 
15.593568 46.694447 152.480377 3.152566 -0.542365 7.363596 31.095255 -2.762000 1.994107 -27.724773 2.233266 3.000335 -3.821828 1.576759 -7.883768 6.692369 -1.151159 -7.872829 -4.012249 8.311230 -0.011051 -52.400120 49.987610 11.318221 -7.008578 -3.259823 -43.536407 3.643966 7.749386 0.473745 12.001499 -2.716874 -0.009541 56.345013 31.065781 7.576435 87.048767 -0.335751 5.069447 10.062329 -1.498310 -0.275913 -23.403803 2.225656 7.741650 26.986404 -1.284744 -2.327734 -7.672832 -12.176941 -14.013313 1.004683 -12.864560 -3.891545 46.808029 0.261713 3.338470 -9.907631 10.947405 14.268773 
16.052835 46.373013 153.614563 2.786935 0.270068 9.004035 31.149904 -3.222079 1.085564 -26.807180 2.556362 2.394987 -3.052989 0.411386 -11.572524 6.020495 1.127232 -11.984678 -3.943905 8.223329 -0.011039 -54.624458 46.802719 5.962126 -7.919376 -3.006408 -38.908752 2.772743 8.437982 0.397611 12.060196 -2.111416 -0.009544 57.142658 27.904898 5.611655 92.357780 -0.218752 2.656927 9.046202 -1.464386 -0.243171 -23.199099 0.926932 8.827623 30.584860 -1.139223 -2.516249 -10.738339 -13.603046 -14.930531 -0.049734 -14.043886 -4.309009 52.989933 -0.099706 3.579763 -9.360128 10.109099 13.983258 
16.500469 46.363129 154.691299 2.605869 0.279229 9.609498 30.901306 -3.046172 1.231844 -25.346878 2.565913 2.502738 -2.385316 -0.338441 -15.703421 5.630476 3.325311 -16.444242 -3.953699 8.057315 -0.011015 -58.048431 41.817661 -0.313757 -9.689835 -2.445693 -32.494900 -0.879800 9.588010 -0.194555 11.865070 -0.988336 -0.009556 57.806774 23.494875 4.437709 96.697235 0.617228 -3.970343 8.134793 0.458512 0.036024 -21.971342 0.820343 10.170312 31.600246 -1.098807 -2.596348 -12.842471 -15.166963 -15.870050 -1.952546 -14.229853 -4.315909 57.854668 -0.390479 3.728683 -8.832998 6.063258 13.217229 
